# xmcd
#
# Track frame offsets:
#       150
#       39811
#       69028
#       97015
#       130170
#       150890
#       181850
#       206590
#       226344
#       255068
#       281740
#       309438
#
# Disc length: 4501 seconds
#
# Revision: 1
# Processed by: cddbd v1.5.2PL0 Copyright (c) Steve Scherf et al.
# Submitted via: WaveLab 4.01
#
DISCID=8911930c
DTITLE=Various Artist - DJJoker - Luminous
DYEAR=2007
DGENRE=Trance
TTITLE0=Andy Moor Vs Orkidea - YearZero (Orkidea's Metaverse Mix)
TTITLE1=Activa Vs Tom Colontonio - Enlighten (Original Mix)
TTITLE2=Purple Mood - One Night In Tokyo (DJ Shah's Savannah Remix)
TTITLE3=Vincent De Moor - Fly Away 2007 (Sean Tyas Remix)
TTITLE4=Tom Daynes - Breathe (Woody Van Eyden Dub)
TTITLE5=Oliver Smith - Nimbus (Original Mix)
TTITLE6=First and Andre - Cruiser (Alex Morph Remix)
TTITLE7=Kamil Polner - Destructor (Original Mix)
TTITLE8=Airspace and Brad Thatcher - The Truth (Original Mix)
TTITLE9=John O'Callaghan - Split Decision (Original Mix)
TTITLE10=Octagen and Hydroid - Within (4TI Remix)
TTITLE11=Octagen Vs DJ Dazzle - Continous (Original Mix)
EXTD=
EXTT0=
EXTT1=
EXTT2=
EXTT3=
EXTT4=
EXTT5=
EXTT6=
EXTT7=
EXTT8=
EXTT9=
EXTT10=
EXTT11=
PLAYORDER=
